<?xml version="1.0" encoding="UTF-8"?>
<svg version="1.1" xmlns="http://www.w3.org/2000/svg" width="1024" height="1024">
<path d="M0 0 C337.92 0 675.84 0 1024 0 C1024 337.92 1024 675.84 1024 1024 C686.08 1024 348.16 1024 0 1024 C0 686.08 0 348.16 0 0 Z " fill="#FEF4E2" transform="translate(0,0)"/>
<path d="M0 0 C1.37686981 -0.00537781 1.37686981 -0.00537781 2.78155518 -0.01086426 C12.89449115 -0.03209711 22.49066703 0.31232707 32.4375 2.3125 C34.97550076 2.65586798 37.51519093 2.91556505 40.0625 3.1875 C55.39773441 5.01090812 69.95048757 9.04819652 84.4375 14.3125 C85.19063477 14.58465332 85.94376953 14.85680664 86.71972656 15.13720703 C101.07480069 20.37867776 114.57154488 26.82661682 127.69140625 34.671875 C129.69177356 35.86697354 131.71628524 37.02193209 133.75390625 38.15234375 C137.95897322 40.54820742 141.87594531 43.31576968 145.8125 46.125 C146.92806274 46.91849854 146.92806274 46.91849854 148.06616211 47.72802734 C160.88885576 56.88729437 160.88885576 56.88729437 163.4375 59.3125 C163.4375 59.9725 163.4375 60.6325 163.4375 61.3125 C164.01628906 61.58578125 164.59507812 61.8590625 165.19140625 62.140625 C171.45325202 65.40767496 176.11061173 69.81618247 180.4375 75.3125 C182.60713574 77.53923141 184.81344561 79.71694809 187.0625 81.86328125 C191.68599178 86.35260921 195.59003699 91.14998616 199.4375 96.3125 C200.27069473 97.40505363 201.10403805 98.49749396 201.9375 99.58984375 C219.83164611 123.272228 234.60900355 150.07563392 242.46875 178.7890625 C243.10545016 181.10480259 243.77136696 183.41274339 244.46875 185.7109375 C247.22091718 194.82227883 248.99063128 203.92329248 250.4375 213.3125 C250.73140625 215.20162109 250.73140625 215.20162109 251.03125 217.12890625 C252.38392567 226.50812062 253.09648253 235.85031769 253.4375 245.3125 C253.48052246 246.36219971 253.48052246 246.36219971 253.52441406 247.43310547 C254.57006896 276.24155966 250.7409493 306.96415084 241.4375 334.3125 C241.10927246 335.28678955 241.10927246 335.28678955 240.77441406 336.28076172 C237.12032382 346.95399337 232.38020108 357.04513075 227.4609375 367.18457031 C225.37378765 371.52416909 223.40322643 375.91678009 221.4375 380.3125 C220.7775 380.3125 220.1175 380.3125 219.4375 380.3125 C219.17324219 381.19421875 218.90898438 382.0759375 218.63671875 382.984375 C215.44624278 391.83872525 208.91328903 399.71742024 203.4375 407.3125 C202.75945312 408.25996094 202.08140625 409.20742188 201.3828125 410.18359375 C196.60108236 416.72656614 191.4743219 422.72837756 185.9375 428.625 C183.96435441 430.74613151 182.08728073 432.88831042 180.25 435.125 C177.6726478 438.16963418 174.80847145 440.71535187 171.7734375 443.296875 C168.93918586 445.74248344 166.1879421 448.2737625 163.4375 450.8125 C160.04047984 453.94413624 156.62462855 457.04534451 153.125 460.0625 C140.25209723 471.32298579 131.42628139 483.78282749 124.4375 499.3125 C123.82261719 500.65441406 123.82261719 500.65441406 123.1953125 502.0234375 C120.60761932 508.06138825 118.98985184 514.34937111 117.3671875 520.69921875 C117.06039063 521.89160156 116.75359375 523.08398438 116.4375 524.3125 C116.14617187 525.52035156 115.85484375 526.72820313 115.5546875 527.97265625 C114.38872609 531.45831011 113.15052616 533.37035513 110.6875 536.0625 C110.03265625 536.79984375 109.3778125 537.5371875 108.703125 538.296875 C103.58451492 542.85067293 98.77459993 543.753507 92.10110474 543.70690918 C91.27674514 543.71300028 90.45238554 543.71909139 89.60304534 543.72536707 C86.84866638 543.74197791 84.09475068 543.73722402 81.34033203 543.73242188 C79.36229981 543.73976332 77.38427188 543.74834977 75.40625 543.75808716 C70.0384328 543.78030406 64.6707691 543.78323373 59.30291224 543.78133965 C54.81981922 543.78121995 50.33675873 543.78978372 45.85367477 543.79811716 C35.27596293 543.81735196 24.69833001 543.82023479 14.12060547 543.81347656 C3.21305294 543.80683576 -7.69416141 543.82970169 -18.60164535 543.86679029 C-27.97083576 543.89749081 -37.33991741 543.90884692 -46.70915711 543.90495348 C-52.30303325 543.90288633 -57.89664624 543.90836027 -63.4904747 543.93284607 C-68.75193457 543.95511621 -74.01284482 543.95323284 -79.27430725 543.93291855 C-81.20280001 543.92950899 -83.13132979 543.93459525 -85.05977249 543.94890213 C-87.69786577 543.96711986 -90.3340994 543.95432778 -92.97213745 543.93395996 C-93.73071356 543.94647781 -94.48928966 543.95899566 -95.27085292 543.97189283 C-102.02506047 543.86051053 -106.62911612 540.93442421 -111.5859375 536.50390625 C-115.58122069 531.68878171 -117.39435823 527.87666195 -117.8125 521.5 C-119.32453266 506.48047558 -127.53972966 491.47643648 -136.33984375 479.4765625 C-138.5625 476.3125 -138.5625 476.3125 -138.5625 474.3125 C-139.2225 474.3125 -139.8825 474.3125 -140.5625 474.3125 C-141.95030817 472.71233325 -143.27215704 471.05475003 -144.5625 469.375 C-149.62142587 463.04112673 -155.22469583 457.38665083 -161.85546875 452.6875 C-162.70044922 452.006875 -162.70044922 452.006875 -163.5625 451.3125 C-163.5625 450.6525 -163.5625 449.9925 -163.5625 449.3125 C-164.30725586 449.05073975 -165.05201172 448.78897949 -165.81933594 448.51928711 C-168.59643964 447.2975691 -170.25462239 446.0663406 -172.453125 444.00390625 C-173.15880615 443.34398682 -173.8644873 442.68406738 -174.59155273 442.00415039 C-175.32446533 441.30153076 -176.05737793 440.59891113 -176.8125 439.875 C-177.56668213 439.16013428 -178.32086426 438.44526855 -179.09790039 437.70874023 C-184.16328361 432.83988013 -188.7360669 427.84779669 -192.99609375 422.25390625 C-194.42465518 420.20838918 -194.42465518 420.20838918 -196.5625 419.3125 C-197.58424639 417.65907565 -198.58022303 415.98967314 -199.5625 414.3125 C-201.58373066 411.52680388 -203.6502497 408.77902181 -205.72265625 406.03125 C-207.43676909 403.49829344 -208.55699097 401.18836003 -209.5625 398.3125 C-210.2225 398.3125 -210.8825 398.3125 -211.5625 398.3125 C-213.2452177 395.75815875 -214.79707035 393.21429222 -216.3125 390.5625 C-216.76278564 389.78406738 -217.21307129 389.00563477 -217.67700195 388.20361328 C-221.22323316 382.02145433 -224.50619317 375.75167794 -227.5625 369.3125 C-228.12582031 368.16652344 -228.68914062 367.02054688 -229.26953125 365.83984375 C-233.47073777 357.19503132 -236.80604822 348.39619348 -239.87451172 339.29345703 C-240.5730747 337.28205176 -241.32290578 335.29635194 -242.0859375 333.30859375 C-251.66032498 307.91364139 -254.03377276 280.70435472 -254.0625 253.8125 C-254.06690094 252.81166382 -254.07130188 251.81082764 -254.07583618 250.77966309 C-254.0983228 238.54543416 -253.1810716 227.26273983 -250.5625 215.3125 C-250.26261632 213.51472792 -249.97879361 211.71412188 -249.71875 209.91015625 C-249.60660156 209.14509766 -249.49445313 208.38003906 -249.37890625 207.59179688 C-249.16414317 206.08712961 -248.9533383 204.58189311 -248.74609375 203.07617188 C-248.03658833 198.29312673 -246.87155447 193.9201193 -245.26708984 189.35961914 C-244.37738479 186.77466526 -243.73833087 184.16284647 -243.125 181.5 C-238.05150969 160.75915101 -228.83104385 140.42351421 -217.5625 122.3125 C-217.05033936 121.48371338 -217.05033936 121.48371338 -216.52783203 120.63818359 C-211.29169108 112.19681839 -205.66987171 104.15553684 -199.5625 96.3125 C-198.84707031 95.39082031 -198.13164062 94.46914062 -197.39453125 93.51953125 C-193.98239681 89.18554435 -190.514089 85.16770879 -186.5625 81.3125 C-185.12007984 79.69186576 -183.68316778 78.06632208 -182.25 76.4375 C-178.28636053 72.00793603 -174.10762988 68.12748853 -169.5625 64.3125 C-168.33253302 63.2092249 -167.10338683 62.10503417 -165.875 61 C-150.79925939 47.86382836 -134.14605722 37.71468422 -116.5625 28.3125 C-115.88429199 27.94737305 -115.20608398 27.58224609 -114.50732422 27.20605469 C-103.87895935 21.52885658 -92.9585525 17.19783159 -81.5625 13.3125 C-80.3883252 12.90620361 -80.3883252 12.90620361 -79.19042969 12.49169922 C-67.96042678 8.63735355 -56.72837039 5.77429353 -45.02929688 3.75048828 C-42.71313379 3.33924555 -40.41356134 2.87532443 -38.109375 2.40234375 C-25.47813452 0.02061416 -12.80855265 0.02036905 0 0 Z " fill="#EC891F" transform="translate(512.5625,156.6875)"/>
<path d="M0 0 C1.20697111 -0.00596161 1.20697111 -0.00596161 2.43832546 -0.01204365 C5.12598102 -0.02164356 7.81310715 -0.00986255 10.50074768 0.00190735 C12.43113908 -0.0005214 14.36152922 -0.00424152 16.29191589 -0.00915527 C21.52953411 -0.01855717 26.76696522 -0.0091443 32.00456882 0.00417686 C37.48791959 0.01549886 42.97126125 0.01138322 48.45462036 0.00942993 C57.66387485 0.00854712 66.87305572 0.01962407 76.08229065 0.03804016 C86.72505251 0.05920127 97.36770647 0.06271889 108.01048511 0.0564782 C118.25244789 0.05078028 128.49437272 0.05643568 138.73633003 0.06765175 C143.09302028 0.07229269 147.44968728 0.07317375 151.80637932 0.0710659 C156.93883676 0.06918005 162.07118463 0.07730988 167.2036171 0.0931263 C169.08575678 0.09736317 170.96790759 0.09822372 172.85004997 0.0954361 C175.42228835 0.09220481 177.99420132 0.10131998 180.56640625 0.11352539 C181.30844046 0.10974607 182.05047466 0.10596674 182.81499475 0.10207289 C188.08010244 0.1461628 193.36483429 0.56923223 197.73731995 3.7492218 C207.12665839 14.97325857 205.7096319 29.74341332 204.5302887 43.5460968 C201.6244849 68.78208657 188.71098393 91.54768303 168.84669495 107.3742218 C165.59173079 109.83609825 162.25965663 112.13711261 158.84669495 114.3742218 C157.95337463 114.96332336 157.06005432 115.55242493 156.1396637 116.15937805 C128.59253695 133.30567445 93.0975173 134.31185173 61.84669495 129.3742218 C60.59888245 129.19117493 59.35106995 129.00812805 58.06544495 128.8195343 C38.82989656 125.54625821 17.28023473 115.83842641 4.47169495 100.6242218 C2.62592903 98.44841827 0.77790886 96.30022667 -1.1650238 94.2101593 C-17.91800892 76.14884583 -23.28347521 53.79417396 -23.46580505 29.8117218 C-23.49480896 28.53619446 -23.52381287 27.26066711 -23.55369568 25.94648743 C-23.60333749 18.58804337 -23.22868316 13.58076093 -19.15330505 7.3742218 C-13.49204728 1.8619445 -7.78928826 -0.0771774 0 0 Z " fill="#EC881F" transform="translate(421.15330505371094,738.6257781982422)"/>
<path d="M0 0 C1.08557892 3.25995807 0.91310151 5.10542427 -0.21484375 8.328125 C-0.48876953 9.12734375 -0.76269531 9.9265625 -1.04492188 10.75 C-1.48674805 11.9875 -1.48674805 11.9875 -1.9375 13.25 C-2.22818359 14.09046875 -2.51886719 14.9309375 -2.81835938 15.796875 C-3.53621233 17.86805731 -4.26366119 19.93533262 -5 22 C-5.33 22 -5.66 22 -6 22 C-5.22095672 11.44191344 -5.22095672 11.44191344 -3 7 C-3.66 7 -4.32 7 -5 7 C-4.67 6.34 -4.34 5.68 -4 5 C-3.01 5 -2.02 5 -1 5 C-0.67 3.35 -0.34 1.7 0 0 Z " fill="#EA7910" transform="translate(635,654)"/>
<path d="M0 0 C0.66 0.33 1.32 0.66 2 1 C-1.3 3.97 -4.6 6.94 -8 10 C-8.66 9.67 -9.32 9.34 -10 9 C-9.77734375 7.17578125 -9.77734375 7.17578125 -9 5 C-7.00390625 3.48046875 -7.00390625 3.48046875 -4.5625 2.1875 C-3.35787109 1.52814453 -3.35787109 1.52814453 -2.12890625 0.85546875 C-1.42636719 0.57316406 -0.72382813 0.29085937 0 0 Z " fill="#EB7F16" transform="translate(392,187)"/>
<path d="M0 0 C0 0.33 0 0.66 0 1 C-1.13179688 1.20496094 -2.26359375 1.40992188 -3.4296875 1.62109375 C-4.91148761 1.89306972 -6.39325685 2.16521387 -7.875 2.4375 C-8.62136719 2.57220703 -9.36773437 2.70691406 -10.13671875 2.84570312 C-14.18533378 3.54536611 -14.18533378 3.54536611 -18 5 C-20.125 4.0625 -20.125 4.0625 -22 3 C-7.40318907 -0.44419134 -7.40318907 -0.44419134 0 0 Z " fill="#EA750E" transform="translate(478,160)"/>
<path d="M0 0 C2.97 0.495 2.97 0.495 6 1 C6 1.66 6 2.32 6 3 C5.34 3 4.68 3 4 3 C5.98 5.97 5.98 5.97 8 9 C7.67 9.66 7.34 10.32 7 11 C6.0158875 9.73299277 5.03788503 8.4612381 4.0625 7.1875 C3.51722656 6.47980469 2.97195313 5.77210938 2.41015625 5.04296875 C1 3 1 3 0 0 Z " fill="#EB7A11" transform="translate(412,821)"/>
<path d="M0 0 C0.33 0 0.66 0 1 0 C1.33 4.29 1.66 8.58 2 13 C1.01 12.67 0.02 12.34 -1 12 C-0.67 8.04 -0.34 4.08 0 0 Z " fill="#EE8E2C" transform="translate(623,776)"/>
<path d="M0 0 C2.0625 0.4375 2.0625 0.4375 4 1 C4 1.99 4 2.98 4 4 C3.34 4 2.68 4 2 4 C2.33 5.32 2.66 6.64 3 8 C0.52557871 5.84832931 -0.56238367 4.28212246 -1 1 C-0.67 0.67 -0.34 0.34 0 0 Z " fill="#EA7D13" transform="translate(381,638)"/>
<path d="M0 0 C-0.66 1.98 -1.32 3.96 -2 6 C-2.66 6 -3.32 6 -4 6 C-4 5.01 -4 4.02 -4 3 C-4.99 2.34 -5.98 1.68 -7 1 C-4.53721199 -0.231394 -2.7204945 -0.07159196 0 0 Z " fill="#EA7C13" transform="translate(436,170)"/>
</svg>
